# AST/ASF file generated using VICON BodyLanguage
# -----------------------------------------------
:version 1.10
:name VICON
:units
  mass 1.0
  length 0.45
  angle deg
:documentation
   .ast/.asf automatically generated from VICON data using
   VICON BodyBuilder and BodyLanguage model FoxedUp or BRILLIANT.MOD
:root
   order TX TY TZ RX RY RZ
   axis XYZ
   position 0 0 0  
   orientation 0 0 0 
:bonedata
  begin
     id 1 
     name lhipjoint
     direction 0.624716 -0.669793 0.401383 
     length 2.38238 
     axis 0 0 0  XYZ
  end
  begin
     id 2 
     name lfemur
     direction 0.34202 -0.939693 0  
     length 6.4574  
     axis 0 0 20  XYZ
    dof rx ry rz
    limits (-160.0 20.0)
           (-70.0 70.0)
           (-60.0 70.0)
  end
  begin
     id 3 
     name ltibia
     direction 0.34202 -0.939693 0   
     length 7.68739   
     axis 0 0 20   XYZ
    dof rx
    limits (-10.0 170.0)
  end
  begin
     id 4 
     name lfoot
     direction 0.0681309 -0.187188 0.979959   
     length 2.46615   
     axis -90 7.62852e-016 20   XYZ
    dof rx rz
    limits (-45.0 90.0)
           (-70.0 20.0)
  end
  begin
     id 5 
     name ltoes
     direction 1.53566e-011 -4.21819e-011 1   
     length 1.2376   
     axis -90 7.62852e-016 20   XYZ
    dof rx
    limits (-90.0 20.0)
  end
  begin
     id 6 
     name rhipjoint
     direction -0.644473 -0.655875 0.393043   
     length 2.43293  
     axis 0 0 0  XYZ 
  end
  begin
     id 7 
     name rfemur
     direction -0.34202 -0.939693 0   
     length 6.7025   
     axis 0 0 -20   XYZ
    dof rx ry rz
    limits (-160.0 20.0)
           (-70.0 70.0)
           (-70.0 60.0)
  end
  begin
     id 8 
     name rtibia
     direction -0.34202 -0.939693 0   
     length 7.80547   
     axis 0 0 -20   XYZ
    dof rx
    limits (-10.0 170.0)
 end
 begin
     id 9 
     name rfoot
     direction -0.0756734 -0.207911 0.975216   
     length 2.40315  
     axis -90 -7.62852e-016 -20   XYZ
    dof rx rz
    limits (-45.0 90.0)
           (-20.0 70.0)
  end
  begin
     id 10 
     name rtoes
     direction -1.5353e-011 -4.21879e-011 1   
     length 1.20477   
     axis -90 -7.62852e-016 -20   XYZ
    dof rx
    limits (-90.0 20.0)
  end
  begin
     id 11 
     name lowerback
     direction 0.0160353 0.987463 -0.157037   
     length 2.18572   
     axis 0 0 0   XYZ
    dof rx ry rz
    limits (-20.0 45.0)
           (-30.0 30.0)
           (-30.0 30.0)
  end
  begin
     id 12 
     name upperback
     direction -0.00499661 0.999756 0.0215076   
     length 2.18016   
     axis 0 0 0   XYZ
    dof rx ry rz
    limits (-20.0 45.0)
           (-30.0 30.0)
           (-30.0 30.0)
  end
  begin
     id 13 
     name thorax
     direction -0.00921346 0.995333 0.0960619   
     length 2.24923   
     axis 0 0 0   XYZ
    dof rx ry rz
    limits (-20.0 45.0)
           (-30.0 30.0)
           (-30.0 30.0)
  end
  begin
     id 14 
     name lowerneck
     direction 0.0274184 0.991181 0.12965   
     length 1.70911   
     axis 0 0 0   XYZ
    dof rx ry rz
    limits (-20.0 45.0)
           (-30.0 30.0)
           (-30.0 30.0)
  end
  begin
     id 15 
     name upperneck
     direction 0.0015627 0.999959 -0.00893559   
     length 1.69312   
     axis 0 0 0   XYZ
    dof rx ry rz
    limits (-20.0 45.0)
           (-30.0 30.0)
           (-30.0 30.0)
  end
  begin
     id 16
     name head
     direction -0.00230242 0.999856 -0.0168327  
     length 1.80241  
     axis 0 0 0   XYZ
    dof rx ry rz
    limits (-20.0 45.0)
           (-30.0 30.0)
           (-30.0 30.0)
  end
  begin
     id 17 
     name lclavicle
     direction 0.955523 0.290741 -0.0494489  
     length 3.84275  
     axis 0 0 0   XYZ
    dof ry rz
    limits (-20.0 10.0)
           (0.0 20.0)
  end
  begin
     id 18 
     name lhumerus
     direction 1 -4.48967e-011 -3.18382e-028   
     length 5.17714   
     axis 180 -30 -90   XYZ
    dof rx ry rz
    limits (-60.0 90.0)
           (-90.0 90.0)
           (-90.0 90.0)
  end
  begin
     id 19
     name lradius
     direction 1 -4.48968e-011 -2.22911e-027   
     length 3.43679   
     axis 180 -30 -90   XYZ
    dof rx
    limits (-10.0 170.0)
  end
  begin
     id 20
     name lwrist
     direction 1 -4.48951e-011 -6.32245e-027   
     length 1.7184   
     axis 3.57107e-015 90 90   XYZ
    dof ry
    limits (-180.0 0.0)
 end
  begin
     id 21 
     name lhand
     direction 1 -4.48924e-011 -1.26431e-026   
     length 0.573117   
     axis 8.06912e-015 90 90   XYZ
    dof rx rz
    limits (-90.0 90.0)
           (-45.0 45.0)
  end
  begin
     id 22 
     name lfingers
     direction 1 -4.49001e-011 -2.52965e-026   
     length 0.462062   
     axis 1.61381e-014 90 90   XYZ
    dof rx
    limits (0.0 90.0)
  end
  begin
     id 23
     name lthumb
     direction 0.707107 -6.35008e-011 0.707107   
     length 0.663431   
     axis -90 45 -1.62303e-014   XYZ
    dof rx rz
    limits (-45.0 45.0)
           (-45.0 45.0)
  end
  begin
     id 24 
     name rclavicle
     direction -0.963917 0.256881 -0.0698287   
     length 3.73057  
     axis 0 0 0   XYZ 
    dof ry rz
    limits (-10.0 20.0)
           (-20.0 0.0)
  end
  begin
     id 25 
     name rhumerus
     direction -1 -4.48962e-011 -2.73982e-027  
     length 5.23908   
     axis 180 30 90   XYZ
    dof rx ry rz
    limits (-90.0 60.0)
           (-90.0 90.0)
           (-90.0 90.0)
  end
  begin
     id 26 
     name rradius
     direction -1 -4.48968e-011 -4.33218e-027   
     length 3.46485   
     axis 180 30 90   XYZ
    dof rx
    limits (-10.0 170.0)
  end
  begin
     id 27 
     name rwrist
     direction -1 -4.48989e-011 -6.32372e-027   
     length 1.73243   
     axis 3.57107e-015 -90 -90   XYZ
    dof ry
    limits (-180.0 0.0)
  end
  begin
     id 28
     name rhand
     direction -1 -4.48948e-011 -1.26448e-026   
     length 0.608752   
     axis 8.06912e-015 -90 -90   XYZ
    dof rx rz
    limits (-90.0 90.0)
           (-45.0 45.0)
  end
  begin
     id 29
     name rfingers
     direction -1 -4.48962e-011 -2.52913e-026   
     length 0.490792   
     axis 1.61381e-014 -90 -90   XYZ
    dof rx
    limits (0.0 90.0)
  end
  begin
     id 30
     name rthumb
     direction -0.707107 -6.34878e-011 0.707107   
     length 0.704682   
     axis -90 -45 1.62303e-014   XYZ
    dof rx rz
    limits (-45.0 45.0)
           (-45.0 45.0)
  end
:hierarchy
  begin
    root lhipjoint rhipjoint lowerback
    lhipjoint lfemur
    lfemur ltibia
    ltibia lfoot
    lfoot ltoes
    rhipjoint rfemur
    rfemur rtibia
    rtibia rfoot
    rfoot rtoes
    lowerback upperback
    upperback thorax
    thorax lowerneck lclavicle rclavicle
    lowerneck upperneck
    upperneck head
    lclavicle lhumerus
    lhumerus lradius
    lradius lwrist
    lwrist lhand lthumb
    lhand lfingers
    rclavicle rhumerus
    rhumerus rradius
    rradius rwrist
    rwrist rhand rthumb
    rhand rfingers
  end

#!OML:ASF G:\JayActor3\Patient Classification 1\Patient 1\Session 6\male.ASF
:FULLY-SPECIFIED
:DEGREES
569
root -1.00293 16.4653 1.37445 178.799 -29.7162 -171.955
lowerback -0.210481 -1.21791 0.0635859
upperback -1.02349 -1.63086 0.568501
thorax -0.914545 -0.818113 0.555605
lowerneck 12.4824 10.4589 3.66512
upperneck -19.733 16.4668 9.49285
head -8.80425 6.06684 0.774551
rclavicle 6.36111e-015 4.77083e-015
rhumerus -36.305 34.0822 -96.9324
rradius 97.6344
rwrist 5.73532
rhand -53.5631 4.47916
rfingers 7.12502
rthumb -26.0051 -23.7613
lclavicle 6.36111e-015 4.77083e-015
lhumerus -23.1204 -41.0324 94.0487
lradius 86.55
lwrist 31.3808
lhand -36.2 6.95452
lfingers 7.12502
lthumb -9.30282 36.7293
rfemur -15.3229 6.65335 25.2292
rtibia 36.6434
rfoot -20.8673 -5.51181
rtoes 3.12887
lfemur -7.75404 11.5823 -17.117
ltibia 26.2673
lfoot -18.9104 -3.53001
ltoes 13.3473
570
root -0.988266 16.465 1.37774 178.768 -29.7649 -171.956
lowerback -0.184365 -1.22755 0.0806669
upperback -1.00256 -1.64328 0.561644
thorax -0.908313 -0.824326 0.539423
lowerneck 12.4821 10.4633 3.65882
upperneck -19.7048 16.4662 9.46756
head -8.79229 6.07393 0.767617
rclavicle 1.74837e-014 3.97569e-015
rhumerus -36.2591 34.0918 -96.95
rradius 97.633
rwrist 5.72749
rhand -53.5814 4.46614
rfingers 7.12502
rthumb -26.0225 -23.7718
lclavicle 1.74837e-014 3.97569e-015
lhumerus -22.9135 -41.2874 93.7704
lradius 86.63
lwrist 31.586
lhand -35.9958 6.98516
lfingers 7.12502
lthumb -9.10575 36.7686
rfemur -15.3584 6.73428 25.2701
rtibia 36.7209
rfoot -20.8836 -5.66972
rtoes 2.92139
lfemur -7.75345 11.5647 -17.0657
ltibia 26.2527
lfoot -18.865 -3.63606
ltoes 13.3759
571
root -0.973169 16.4643 1.3807 178.742 -29.8286 -171.981
lowerback -0.156949 -1.23758 0.0796114
upperback -0.978768 -1.6562 0.547402
thorax -0.899604 -0.830627 0.52583
lowerneck 12.4787 10.4681 3.65405
upperneck -19.6692 16.4653 9.43925
head -8.77673 6.08206 0.759811
rclavicle -7.42336e-014 -2.3059e-014
rhumerus -36.2162 34.0946 -96.9661
rradius 97.6361
rwrist 5.71195
rhand -53.5938 4.45904
rfingers 7.12502
rthumb -26.0344 -23.7772
lclavicle -7.42336e-014 -2.3059e-014
lhumerus -22.6727 -41.5689 93.4538
lradius 86.7147
lwrist 31.8151
lhand -35.7384 7.04237
lfingers 7.12502
lthumb -8.85732 36.8365
rfemur -15.3894 6.81942 25.2923
rtibia 36.8115
rfoot -20.9158 -5.8476
rtoes 2.68612
lfemur -7.74431 11.5596 -17.0321
ltibia 26.2343
lfoot -18.8117 -3.77102
ltoes 13.4104
572
root -0.957621 16.4633 1.38339 178.718 -29.9094 -172.027
lowerback -0.127709 -1.24918 0.0619584
upperback -0.952056 -1.67122 0.526504
thorax -0.888638 -0.837836 0.514733
lowerneck 12.4716 10.4754 3.64869
upperneck -19.6225 16.4664 9.40943
head -8.75665 6.09278 0.751701
rclavicle -4.07819e-014 -1.59028e-015
rhumerus -36.1767 34.0941 -96.9812
rradius 97.6437
rwrist 5.6893
rhand -53.6032 4.45883
rfingers 7.12502
rthumb -26.0434 -23.776
lclavicle -4.07819e-014 -1.59028e-015
lhumerus -22.3922 -41.8695 93.0908
lradius 86.8039
lwrist 32.0856
lhand -35.4047 7.12378
lfingers 7.12502
lthumb -8.53538 36.9313
rfemur -15.4168 6.90486 25.2975
rtibia 36.9164
rfoot -20.9634 -6.04314
rtoes 2.43794
lfemur -7.7264 11.5669 -17.0146
ltibia 26.2106
lfoot -18.748 -3.93536
ltoes 13.4529
573
root -0.941562 16.4618 1.38574 178.691 -30.0045 -172.08
lowerback -0.0969075 -1.26028 0.0395549
upperback -0.922936 -1.68559 0.501883
thorax -0.876064 -0.84468 0.502489
lowerneck 12.4607 10.4839 3.65004
upperneck -19.5612 16.4676 9.37211
head -8.72955 6.10573 0.740625
rclavicle -2.22515e-014 1.74931e-014
rhumerus -36.1443 34.0863 -96.995
rradius 97.6583
rwrist 5.65892
rhand -53.6089 4.46496
rfingers 7.12502
rthumb -26.0489 -23.7691
lclavicle -2.22515e-014 1.74931e-014
lhumerus -22.0686 -42.1889 92.6767
lradius 86.901
lwrist 32.4181
lhand -34.9759 7.24543
lfingers 7.12502
lthumb -8.12155 37.0694
rfemur -15.4397 6.99728 25.3004
rtibia 37.0326
rfoot -21.0262 -6.25834
rtoes 2.1925
lfemur -7.70275 11.5817 -17
ltibia 26.1863
lfoot -18.6782 -4.1198
ltoes 13.4897
574
root -0.925048 16.4602 1.38773 178.664 -30.1169 -172.143
lowerback -0.0667818 -1.27317 0.00877125
upperback -0.892205 -1.7024 0.474622
thorax -0.861283 -0.852687 0.492212
lowerneck 12.4437 10.4955 3.65666
upperneck -19.4794 16.4703 9.32476
head -8.69294 6.12269 0.726029
rclavicle -4.29685e-014 2.22639e-014
rhumerus -36.108 34.0801 -97.0064
rradius 97.671
rwrist 5.61689
rhand -53.6173 4.4799
rfingers 7.12502
rthumb -26.0569 -23.753
lclavicle -4.29685e-014 2.22639e-014
lhumerus -21.6993 -42.5276 92.2057
lradius 87.0047
lwrist 32.8212
lhand -34.4523 7.41081
lfingers 7.12502
lthumb -7.61614 37.2537
rfemur -15.4595 7.09603 25.298
rtibia 37.1565
rfoot -21.1008 -6.49696
rtoes 1.9316
lfemur -7.68052 11.5997 -16.9922
ltibia 26.1677
lfoot -18.6053 -4.32067
ltoes 13.5267
575
root -0.908135 16.4583 1.38937 178.632 -30.2469 -172.196
lowerback -0.0398888 -1.28636 -0.012436
upperback -0.862296 -1.71964 0.448729
thorax -0.845766 -0.861019 0.477919
lowerneck 12.4233 10.5084 3.67467
upperneck -19.3766 16.4726 9.26346
head -8.64617 6.14278 0.705926
rclavicle -4.30679e-014 -2.14687e-014
rhumerus -36.072 34.0693 -97.0138
rradius 97.6842
rwrist 5.57089
rhand -53.6289 4.49836
rfingers 7.12502
rthumb -26.0681 -23.7329
lclavicle -4.30679e-014 -2.14687e-014
lhumerus -21.2826 -42.8933 91.6743
lradius 87.1144
lwrist 33.3105
lhand -33.8335 7.6261
lfingers 7.12502
lthumb -7.01883 37.4897
rfemur -15.4797 7.20602 25.3092
rtibia 37.2848
rfoot -21.1817 -6.76327
rtoes 1.65493
lfemur -7.66836 11.6193 -16.9734
ltibia 26.16
lfoot -18.5329 -4.53162
ltoes 13.5367
576
root -0.890884 16.4563 1.39046 178.596 -30.3971 -172.234
lowerback -0.0235358 -1.29934 -0.018628
upperback -0.834649 -1.73664 0.425702
thorax -0.827019 -0.869383 0.457931
lowerneck 12.3991 10.5214 3.69998
upperneck -19.2523 16.4725 9.18989
head -8.58952 6.16519 0.681741
rclavicle 1.2834e-014 3.73715e-014
rhumerus -36.0347 34.0484 -97.015
rradius 97.6956
rwrist 5.53052
rhand -53.632 4.50232
rfingers 7.12502
rthumb -26.071 -23.7285
lclavicle 1.2834e-014 3.73715e-014
lhumerus -20.8158 -43.2905 91.0805
lradius 87.2326
lwrist 33.8973
lhand -33.1076 7.90347
lfingers 7.12502
lthumb -6.3181 37.7892
rfemur -15.5048 7.33351 25.3386
rtibia 37.4169
rfoot -21.2713 -7.05827
rtoes 1.37711
lfemur -7.67286 11.6421 -16.9391
ltibia 26.1645
lfoot -18.4589 -4.75883
ltoes 13.5409
577
root -0.873476 16.4542 1.39105 178.564 -30.5714 -172.267
lowerback -0.0186339 -1.31256 -0.0154082
upperback -0.809943 -1.75402 0.401905
thorax -0.80518 -0.878043 0.431648
lowerneck 12.3721 10.5353 3.72762
upperneck -19.1076 16.4712 9.10866
head -8.52446 6.19022 0.65548
rclavicle 2.96872e-014 -3.18055e-014
rhumerus -35.9962 34.0181 -97.0111
rradius 97.7041
rwrist 5.49585
rhand -53.6273 4.49436
rfingers 7.12502
rthumb -26.0665 -23.7371
lclavicle 2.96872e-014 -3.18055e-014
lhumerus -20.2971 -43.7209 90.4227
lradius 87.3563
lwrist 34.5863
lhand -32.2745 8.23657
lfingers 7.12502
lthumb -5.51379 38.1448
rfemur -15.5383 7.47079 25.3738
rtibia 37.5547
rfoot -21.364 -7.3739
rtoes 1.08418
lfemur -7.69453 11.6609 -16.902
ltibia 26.18
lfoot -18.384 -5.00129
ltoes 13.5644
